<?xml version="1.0" encoding="UTF-8" standalone="no"?>
<svg
   xmlns:dc="http://purl.org/dc/elements/1.1/"
   xmlns:cc="http://creativecommons.org/ns#"
   xmlns:rdf="http://www.w3.org/1999/02/22-rdf-syntax-ns#"
   xmlns:svg="http://www.w3.org/2000/svg"
   xmlns="http://www.w3.org/2000/svg"
   viewBox="0 0 1213.3333 533.33331"
   height="533.33331"
   width="1213.3333"
   xml:space="preserve"
   id="svg2"
   version="1.1"><metadata
     id="metadata8"><rdf:RDF><cc:Work
         rdf:about=""><dc:format>image/svg+xml</dc:format><dc:type
           rdf:resource="http://purl.org/dc/dcmitype/StillImage" /></cc:Work></rdf:RDF></metadata><defs
     id="defs6"><clipPath
       id="clipPath18"
       clipPathUnits="userSpaceOnUse"><path
         id="path16"
         d="M 0,400 H 910 V 0 H 0 Z" /></clipPath></defs><g
     transform="matrix(1.3333333,0,0,-1.3333333,0,533.33333)"
     id="g10"><g
       id="g12"><g
         clip-path="url(#clipPath18)"
         id="g14"><g
           transform="translate(373.9619,195.8594)"
           id="g20"><path
             id="path22"
             style="fill:#ffffff;fill-opacity:1;fill-rule:nonzero;stroke:none"
             d="m 0,0 c 0,-12.079 -7.551,-19.844 -18.334,-19.844 -10.14,0 -17.041,6.902 -17.041,18.765 V 49.889 H -64.711 V -4.745 c 0,-24.805 13.155,-40.553 36.237,-40.553 12.079,0 22.219,4.528 29.337,12.513 V -42.63 H 30.852 V 49.889 L 0,49.889 Z" /></g><path
           id="path24"
           style="fill:#ffffff;fill-opacity:1;fill-rule:nonzero;stroke:none"
           d="m 647.903,153.397 h 30.862 v 92.419 h -30.862 z" /><g
           transform="translate(682.0459,276.8232)"
           id="g26"><path
             id="path28"
             style="fill:#ffffff;fill-opacity:1;fill-rule:nonzero;stroke:none"
             d="m 0,0 c 0,-10.193 -8.264,-18.456 -18.456,-18.456 -10.193,0 -18.456,8.263 -18.456,18.456 0,10.193 8.263,18.456 18.456,18.456 C -8.264,18.456 0,10.193 0,0" /></g><g
           transform="translate(570.7051,276.6787)"
           id="g30"><path
             id="path32"
             style="fill:#ffffff;fill-opacity:1;fill-rule:nonzero;stroke:none"
             d="M 0,0 H -30.862 V -123.449 H 0 v 30.862 h 30.86 v 30.862 H 0 Z" /></g><g
           transform="translate(747.2061,172.6348)"
           id="g34"><path
             id="path36"
             style="fill:#ffffff;fill-opacity:1;fill-rule:nonzero;stroke:none"
             d="m 0,0 c -14.665,0 -26.099,11.648 -26.099,26.747 0,14.885 11.434,26.534 26.099,26.534 14.885,0 26.101,-11.649 26.101,-26.534 C 26.101,11.648 14.885,0 0,0 m 4.716,77.871 c -13.213,0 -23.906,-5.452 -31.247,-14.888 V 73.182 H -53.063 V -57.89 H -22.2 v 45.496 c 6.973,-6.399 16.222,-10.183 26.916,-10.183 25.793,0 47.182,22.018 47.182,50.328 0,28.102 -21.389,50.12 -47.182,50.12" /></g><g
           transform="translate(473.3066,172.6348)"
           id="g38"><path
             id="path40"
             style="fill:#ffffff;fill-opacity:1;fill-rule:nonzero;stroke:none"
             d="m 0,0 c -14.666,0 -26.099,11.648 -26.099,26.747 0,14.885 11.433,26.534 26.099,26.534 14.885,0 26.101,-11.649 26.101,-26.534 C 26.101,11.648 14.885,0 0,0 m 4.716,77.871 c -13.213,0 -23.907,-5.452 -31.247,-14.888 V 73.182 H -53.063 V -57.89 H -22.2 v 45.496 c 6.972,-6.399 16.222,-10.183 26.916,-10.183 25.793,0 47.182,22.018 47.182,50.328 0,28.102 -21.389,50.12 -47.182,50.12" /></g><path
           id="path42"
           style="fill:#ffffff;fill-opacity:1;fill-rule:nonzero;stroke:none"
           d="m 601.565,214.954 h 30.862 v 30.862 h -30.862 z" /><path
           id="path44"
           style="fill:#ffffff;fill-opacity:1;fill-rule:nonzero;stroke:none"
           d="M 632.428,184.092 H 601.566 V 153.23 h 30.862 z" /><g
           transform="translate(271.2812,276.6206)"
           id="g46"><path
             id="path48"
             style="fill:#ffffff;fill-opacity:1;fill-rule:nonzero;stroke:none"
             d="m 0,0 c 0,13.591 -11.018,24.608 -24.608,24.608 -13.591,0 -24.608,-11.017 -24.608,-24.608 0,-10.895 7.083,-20.13 16.895,-23.367 v -92.083 h -107.71 V -7.666 h 46.159 v -23.393 h -22.997 v -61.375 h 61.375 v 61.375 H -78.492 V 7.714 h -76.919 V -130.83 h 138.47 V -23.383 C -7.106,-20.161 0,-10.913 0,0" /></g></g></g></g></svg>